<svg id="GB_Logo" data-name="GB Logo" xmlns="http://www.w3.org/2000/svg" viewBox="0 0 1214 701.91" role="img" aria-labelledby="title  desc" width="100px">
                                    <defs><style>.cls-1{fill:#F0F0F0;}</style></defs>
                                    <title id="title">GrindelBoulder</title>
                                    <desc id="desc">Logo der GrindelBoulder Kletterhalle in Bassersdorf bei Zürich</desc>
                                    <path id="GB_Logo1" role="presentation" data-name="GB Logo" class="cls-1" d="M84.56,143.27c-7.39,8.31-16.67,15.26-22.72,24.39-21.59,32.59-35.27,68.77-45,106.46C7.58,309.74,2.45,346,.25,382.7-1.27,408.22,4.11,432,16.64,456.86c6.47-16.57,12.19-31.19,17.9-45.82,2.8-7.18,7.38-8.07,12.48-2.41,6.65,7.39,6,16.55-1.39,24.85-20.3,22.65-28.72,50.71-24,79.16,2.56,15.29,8.57,29.54,16.2,43.1C113.68,618,211,667.53,322,699.17c8.87-3.27,15.86-10.06,20.14-20.84,1-2.5,2.48-4.8,4.16-8,5.63,4,11.65,6.66,15.26,11.21,11.09,14,26.6,15.2,42.27,16.15,23,1.39,46.1,1.87,69.09,3.61,23.39,1.77,45.68.34,65.95-13.47,8.4-5.72,14.56-12.71,16.93-22.25,2.84-11.41,5.93-23.08,6.3-34.73.93-28.86.55-57.77.36-86.66-.1-14-11-22.59-24.85-20.37-1,.16-2.18-.57-4.54-1.26a226.83,226.83,0,0,0,28.69-70.76c1.46-6.69,5.9-13.19,10.34-18.67,10.46-12.93,22.34-24.74,32.55-37.84a173.82,173.82,0,0,0,33.06-69.62,19.69,19.69,0,0,1,.66,9c-2.26,15.76-5.42,31.44-6.77,47.27-1.8,21-2.79,42.19-3.13,63.31-.58,37.1-.84,74.18,6.27,110.93,2.13,11,4.46,23.29,1.67,33.64-2.89,10.76-11.69,20-18.2,29.69-5.66,8.44-8.87,17.11-4.09,27,5,10.35,10,20.72,15.45,30.87,6.73,12.65,17.41,21.19,31.6,22,26.46,1.58,53.08,2.78,79.51,1.53,10.29-.48,21.13-6.68,30.15-12.65,12.83-8.49,24.21-19.18,37.82-30.24-1.06,5.8-.9,9.88-2.54,13-4.53,8.68-.65,14.32,6.28,18.41,4.79,2.83,10.31,5.74,15.66,6.1,21.36,1.42,42.76,2.92,64.16,3.51,121.46-34.65,226.48-90.77,304.88-161.4q2.65-6.61,5.37-13.18c15.78-38.1,13-76.85,5.31-115.82a41.27,41.27,0,0,0-8.8-17.61c-7.79-9.29-16.82-17.54-26.39-27.28-8.12,1.56-8.29,1.66-14.51-8-3.57-5.53-7.22-3.79-11.31-1.06-2.93,2-6,3.76-8.93,5.63l-2.44-1.73c2.21-9.09,4-18.32,6.76-27.23,2.34-7.5,6.93-8.66,12.56-2.49,4.16,4.56,9.78,4.35,12.33-.22,9.95-17.85,20-35.84,14.89-57.82-3.88-16.7-8.34-33.44-10.2-50.42a161.46,161.46,0,0,0-32-80.83c-2.23-3-4.55-5.85-6.92-8.67-51.94-35.8-111.68-66.33-177.34-90.3-3.5,8.54-1.57,15.89,5.61,21.39C966.93,66.51,973,70.54,979,74.74l-1,1.57-17.1-5.37c14.89,34.94,15.63,51.12,2.26,61.72-.67-10.21-1.22-19.67-1.92-29.11C960,86.65,958,70,940.36,61.27c-5.64-2.78-3.83-6.49-2.06-10.37,3.44-7.55,3.91-12.09.11-16.28q-23-7.87-46.84-14.66c-25.36-3.38-50.85-5.3-76.45-2.45C802.34,18.93,789.66,23,777.5,27.4c-4.78,1.73-9.64,7-11.64,11.85C761,50.92,756.51,63.08,762,76.15c1,2.39.49,5.4.67,8.12-3.32-1.89-5.22-4.39-5.53-7.09-1.53-13.29-3.93-26.68-3.53-40,.38-12.39-5.15-18.83-15.15-23.87-17.73-8.94-36.05-7.52-55.18-6.22-29.42,2-45.87,19.59-49.82,44.29C631,66.5,630.86,81.95,628.31,97c-1.38,8.15,1.13,12.62,7.52,16.63,6.62,4.16,12.85,8.93,19.25,13.44l-.65,3.89c-5.59.67-11.18,1.91-16.76,1.86-6.44-.05-8.71,2.58-8.08,8.69.72,7,1.61,14,1.78,21.06.82,33.28,2.08,66.53,15,97.85,2.25,5.45,6.24,12.31,11.09,14.17,18.93,7.28,32,22,46.67,34.51,6.47,5.52,11.35,12.9,16.94,19.44l-2.19,2.84c-2.52-.65-5.28-.83-7.5-2-8.68-4.7-17.25-9.63-25.75-14.65-8.22-4.85-16.09-10.37-24.55-14.75-7.25-3.75-13.68-2.49-17,6.15a54.38,54.38,0,0,1-2.71,5.32c-1.58-4.12-1.34-7.75-1-11.38.26-2.53.87-5,1-7.58,1.06-23.44-3.54-27.31-27.86-30.43-25.07-3.21-50.1-4.89-75.54-2.44-12,1.16-22,3.2-31.4,11.3-14.87,12.87-15.91,22.76-2.08,37.41,2.65,2.81,5.29,5.63,9,9.56-11,0-19.62.52-28.17-.14a188,188,0,0,1-28.3-4.08c-10.26-2.4-12.72-9-7.24-17.94a98.6,98.6,0,0,1,12-16.12c5.09-5.42,4.38-9.92-1.53-12.85A46.54,46.54,0,0,0,444,262.43c-5-.45-10.09,1.46-15.13,1.4-38.42-.48-76.85-2-115.25-1.55-27.27.33-38.8,10.9-44.63,33.63-1.5,5.85-3.49,11.88-3.31,17.77.17,5.59,2.91,11.1,4.5,16.66.94,3.28,2.77,6.63,2.56,9.84-.49,7.61-2.53,15.14-2.94,22.76-1.37,25.74,2.63,41.75,25.61,55.29,6.85,4,6.61,10,6.33,16.65-.19,4.52-.6,9.75,1.34,13.5,3.9,7.57,9.52,14.22,14.06,21.48,3.63,5.82,8.11,11.63,9.74,18.07,3.58,14.15,5,28.83,8.48,43,1.91,7.83-.31,13.34-5.92,17.74-9.16,7.17-20.49,12.36-31.21,8-19.94-8.15-39.86-17.29-57.87-29-32.18-20.88-47-52.71-49.62-90.42-.78-11.38-3-22-9.46-31.59-4.24-6.37-9.52-12.76-11.33-19.9-8.68-34.24-6-67.56,11.05-99.09a127.76,127.76,0,0,1,41.2-45.76c18.73-12.75,19.33-34.21,20.4-53.35.65-11.61,5.49-15.45,13.68-19.25,2.88-1.34,5.78-2.69,8.76-3.76,6.69-2.4,13.48-4.86,19.72,1.06s8,12.17,5,20.68c-4,11.09-.57,18.57,10.38,21.88,9.33,2.83,19.29,5,29,5,52.63.33,105.27.07,157.91-.29,23.8-.16,47.41-7.61,55.51-29.28,6.95-18.57,5.79-35.78-5.65-52.78-10.45-15.51-8.39-22.94,4-37a42.14,42.14,0,0,0,9.47-19c2-10.6,1.75-21.65,2.46-32.51,1.1-16.91-7.52-28-21.88-34.95-14.94-7.25-30-8.82-44.31,2-4.41,3.33-8.73,6.78-14,10.87C475.37,2.34,473.23-.47,456,.06q-30.94,1-61.86,2.42-33.22,6.8-65.08,15.62a35.65,35.65,0,0,0-3.92,6.18c-.44.89-1.93,1.25-3.75,2.34a25.36,25.36,0,0,0-2-5.79c-80,23-152.78,55.4-215.47,95.09a71.56,71.56,0,0,0-3.81,7.38c-3.3,7.49-9.93,13.65-15.55,20m982,359.37c-.11,11.48-5.92,15.74-17.13,13.88-14.38-2.39-25.88,5.84-37.5,12-6.56,3.48-11.55,4.21-18.61,2a42.36,42.36,0,0,0-20.37-1.07c-14.92,3-29.5,7.75-44.35,11.19-2.86.66-7-.6-9.42-2.43a102.08,102.08,0,0,1-14.9-13.52c-13.58-15.09-13.68-15.33-4.3-33.22,6.87-13.1,10.6-25.81,3.28-40.33-2.42-4.8-3-12.25-1.07-17.15,4.66-11.82,3-23.15.71-34.73-1.85-9.45,2-13.13,11.75-11,20.41,4.46,40.73,9.4,61.29,13,6.76,1.18,15.26.8,21-2.39,11.56-6.42,21.73-3.55,32.45.54,20.79,7.95,37.72,29.78,37.2,49,0,18.11.12,36.22,0,54.33M899.63,204.05c5.87-13.78,11.84-23.21,30.31-19.48,9,1.81,19.79-4.65,29.54-8,5.43-1.89,9.57-1.93,15,1,18,9.59,36.83,17.72,54.85,27.33,9.73,5.18,18.47,12.22,30.2,20.14-22.83,17.52-20.58,40-20,62.2.27,9.61.1,19.24,0,28.86,0,5.33-1.88,8.27-8.05,9.71-38.22,8.91-70.51-2.59-98.57-28.13a246,246,0,0,1-26.74-28.85c-15.84-19.92-16.44-41.68-6.62-64.71"/>
                                </svg>