<svg width="232" height="36" xmlns="http://www.w3.org/2000/svg"><defs><clipPath id="i0"><path d="M232 0v36H0V0h232Z"/></clipPath><clipPath id="i1"><path d="m7.74 0 1.878 21.057h-7.8L0 .664 7.74 0Z"/></clipPath><clipPath id="i2"><path d="m24.005 0 2.848 31.939H2.665L0 2.059l7.74-.663L9.879 25.38l8.525-.731L16.264.664 24.004 0Z"/></clipPath><clipPath id="i3"><path d="m7.74 0 2.24 25.117h-7.8L0 .664 7.74 0Z"/></clipPath><clipPath id="i4"><path d="m38.736 0 1.759 19.725h-7.856L31.617 8.26l-7.702.66.963 10.804H17.08l-.904-10.14-7.758.666.845 9.474h-7.8L0 3.325 38.736 0Z"/></clipPath><clipPath id="i5"><path d="m24.005 0 2.121 23.784h-7.855L16.886 8.26l-8.469.727 1.32 14.797h-7.8L0 2.06 24.005 0Z"/></clipPath><clipPath id="i6"><path d="m7.74 0 .46 5.17-7.739.665L0 .665 7.74 0Z"/></clipPath><clipPath id="i7"><path d="m38.736 0 3.213 36.034h-7.854L31.617 8.26l-7.702.66 2.418 27.113h-7.798l-2.36-26.448-7.758.666 2.3 25.782h-7.8L0 3.324 38.736 0Z"/></clipPath><clipPath id="i8"><path d="m38.736 0 2.599 29.143h-7.856L31.617 8.26l-7.702.661 1.803 20.222h-7.799L16.175 9.585l-7.758.665 1.685 18.893H2.303L0 3.323 38.736 0Z"/></clipPath><clipPath id="i9"><path d="m7.74 0 .46 5.17-7.739.665L0 .665 7.74 0Z"/></clipPath></defs><g clip-path="url(#i0)"><g clip-path="url(#i1)" transform="translate(46.522 14.977)"><path fill="#ECECEC" d="M0 0h9.618v21.023H0V0z"/></g><g clip-path="url(#i2)" transform="translate(157.073 4.095)"><path fill="#ECECEC" d="M0 0h26.853v31.905H0V0z"/></g><g clip-path="url(#i3)" transform="translate(93.839 10.917)"><path fill="#ECECEC" d="M0 0h9.98v25.083H0V0z"/></g><g clip-path="url(#i4)" transform="translate(0 16.309)"><path fill="#ECECEC" d="M0 0h40.495v19.691H0V0z"/></g><g clip-path="url(#i5)" transform="translate(62.047 12.25)"><path fill="#ECECEC" d="M0 0h26.126v23.751H0V0z"/></g><g clip-path="url(#i6)" transform="translate(45.764 6.479)"><path fill="#ECECEC" d="M0 0h8.201v5.835H0V0z"/></g><g clip-path="url(#i7)" transform="translate(190.05)"><path fill="#ECECEC" d="M0 0h41.949v36H0V0z"/></g><g clip-path="url(#i8)" transform="translate(109.76 6.89)"><path fill="#ECECEC" d="M0 0h41.335v29.109H0V0z"/></g></g><g clip-path="url(#i9)" transform="translate(93.08 2.418)"><path fill="#ECECEC" d="M0 0h8.201v5.835H0V0z"/></g></svg>