<svg width="332" height="100" viewBox="0 0 332 100" fill="none" xmlns="http://www.w3.org/2000/svg">
<path d="M232.302 56.2162L204.298 56.2162V62.3291C204.298 64.7919 204.991 66.8345 206.758 68.3046C208.571 69.8137 212.032 70.9233 217.477 70.9233L223.398 70.9233V97.2028H215.816C199.887 97.2028 189.546 94.6414 182.644 88.6726C175.689 82.6579 172.808 73.4552 172.808 62.0522L172.808 56.2162H153.652V27.9688L232.302 27.9687L232.302 56.2162Z" fill="white"/>
<path d="M147.863 96.9293H117.4V27.6953H147.863V96.9293Z" fill="white"/>
<path d="M312 23H253V2H312V23Z" fill="white"/>
<path d="M294.694 27.1406C313.265 27.1406 328.518 42.9905 328.989 61.3161L328.997 61.7494V61.7548L329 62.1823V62.1878C329 80.8899 313.271 97.2054 294.694 97.2054H268.87C250.418 97.2054 234.842 80.7818 234.842 62.1878C234.842 43.5916 250.559 27.1406 268.87 27.1406H294.694ZM278.411 54.5061C274.614 54.5062 271.211 57.9404 271.105 61.9275L271.102 62.1238C271.105 66.2009 274.428 69.7301 278.41 69.7302L285.357 69.7343C289.3 69.7342 292.74 66.1989 292.74 62.1183C292.74 58.0377 289.3 54.5018 285.357 54.5018L278.411 54.5061Z" fill="white"/>
<path d="M55.0821 58.4225L72.2917 27.6953H110.167V96.9293H79.8666V73.0109L65.6774 96.9293H44.4893L30.2999 72.7339V96.9293H0V27.6953H37.7866L55.0821 58.4225Z" fill="white"/>
</svg>
